<svg id="BTlogo" xmlns="http://www.w3.org/2000/svg" width="29.473" height="34.5" viewBox="0 0 29.473 34.5">
  <path id="路径_1" data-name="路径 1" d="M77.217,65.3c.88,2.619,4.4,12.461,13.612,16.321,2.777,1.332,3.047,2.619,2.3,5.531.384,3.544,2.573,2.009,6.591.609a1.661,1.661,0,0,1,2.009.79s1.151-.045,1.287.926c-2.37-.113-8.871,3.86-12.37,9.932-1.828.88-1.716,0-1.716,0l.09-.767a2.494,2.494,0,0,1-.993.948,4.4,4.4,0,0,1-2.19-.135s1.49-.79,1.151-1.67a7.808,7.808,0,0,1-6.637.519c11.016-3.476,12.032-6.84,7.449-8.6.587-.2.858-.5.7-.722a9.362,9.362,0,0,1-6.456-3.431c1.874.113,1.535-.135,1.535-.135s-6.388-4.131-6.93-8.555c1.377.993,1.558,1.332,2.619,1.49C75.84,72.208,76.02,66.654,77.217,65.3Z" transform="translate(-76.434 -65.3)" fill="#018bf7"/>
  <path id="路径_2" data-name="路径 2" d="M169.293,91.3c-9.12,7.788-4.266,9.729-10.993,17.246a17.555,17.555,0,0,0,5.779-1.783C169.293,103.287,165.524,97.575,169.293,91.3Z" transform="translate(-139.82 -85.431)" fill="#018bf7"/>
</svg>
